<svg version="1.2" xmlns="http://www.w3.org/2000/svg" viewBox="0 0 181 73" width="180" height="73">
	<title>template</title>
	<style>
		.s0 { fill: #209874 } 
		.s1 { fill: #88e6ca } 
		.s2 { fill: #ffffff } 
		.s3 { fill: #def042 } 
	</style>
	<path id="Background" class="s0" d="m-380-83h1179v663.2h-1179z"/>
	<g id="flower">
		<path id="Layer" fill-rule="evenodd" class="s1" d="m147.7 22.9c0.1 7.5-5.1 15.9-14.5 16.1-4.2 0.1-7.8-1.9-10.5-5.3-4.6-5.9-4.8-12.5-1.4-19.5 1.4 1.4 3.7 4.1 6.2 7.2v-5.8c-0.9 0-1.4-0.7-1.4-1.5 0-0.9 0.8-1.7 1.7-1.7 0.9 0 1.5 0.8 1.5 1.7 0 0.8-0.5 1.5-1.2 1.5v6h0.1c1.5-3.5 3.2-6.6 5.1-8.7 1.6 1.5 3 5.1 4.4 8.7h0.1v-6c-0.8 0-1.4-0.7-1.4-1.5 0-0.9 0.8-1.7 1.7-1.7 0.9 0 1.5 0.8 1.5 1.7 0 0.8-0.5 1.5-1.2 1.5v6c2.4-3.4 4.9-6.5 6.9-7.8 1.5 2.1 2.2 5 2.3 9.1zm-15.3 14.2c-1.4-3.7-3.7-7.1-6.7-8.2-1.5-0.4-2.2 0.8-0.8 3 1.9 2.7 5 4.2 7.5 5.2zm0.9-1c1.8-3.6 2.4-7.7 1.1-10.5-0.8-1.4-2-1.1-2.6 1.5-0.6 3.3 0.5 6.6 1.5 9zm6.4-6.4c-2.8 1.8-4.3 4.9-5.3 7.4 3.8-1.3 7.1-3.7 8.2-6.7 0.4-1.5-0.8-2.2-2.9-0.7z"/>
	</g>
	<path id="SHOPS" class="s2" aria-label="SHOPS"  d="m93.7 54c0.4 0 0.6-0.2 0.5-0.7-0.6-1.4-2-2.3-3.7-2.4-2.4 0-4 1.7-4 3.8 0 2.1 1.4 3.1 4 3.9 2.2 0.7 3.1 1.4 3.1 2.7-0.1 1.6-1.4 2.6-3.1 2.6-1.3 0-2.4-0.7-2.9-1.8-0.1-0.4-0.3-0.5-0.7-0.5h-0.2c-0.4 0-0.7 0.2-0.6 0.7 0.6 1.8 2.3 3 4.4 3 2.5 0 4.5-1.6 4.5-4 0-2.5-1.9-3.5-4.5-4.3-1.7-0.6-2.5-1.1-2.5-2.3 0-1.2 1-2.3 2.5-2.3 0.9 0 1.7 0.5 2.1 1.2 0.2 0.3 0.4 0.4 0.7 0.4zm4.4 11.2c0.4 0 0.6-0.3 0.6-0.7v-6.2h8.1v6.3c0 0.4 0.2 0.6 0.7 0.6h0.1c0.4 0 0.6-0.2 0.6-0.6v-12.8c0-0.4-0.2-0.6-0.6-0.6h-0.1c-0.4 0-0.6 0.2-0.6 0.6l-0.1 5.2-8.1-0.1v-5.1c0-0.4-0.2-0.6-0.6-0.6h-0.2c-0.4 0-0.6 0.2-0.6 0.6v12.7c0 0.4 0.2 0.7 0.6 0.7zm19.7-14.2c-4 0-7.3 3.3-7.3 7.1 0 4 3.2 7.3 7.3 7.3 4 0 7.2-3.3 7.3-7.2 0-3.9-3.3-7.1-7.3-7.2zm0 12.9c-3.3 0-5.8-2.6-5.8-5.8 0-3.1 2.6-5.6 5.8-5.6 3.2 0 5.8 2.6 5.8 5.6 0 3.3-2.6 5.9-5.8 5.8zm10.2-12.6c-0.5 0-0.7 0.2-0.7 0.6v12.7c0 0.4 0.2 0.6 0.6 0.6h0.2c0.4 0.1 0.6-0.2 0.6-0.6v-4.6h3.2c2.7 0 4.5-1.8 4.5-4.4 0-2.6-1.8-4.3-4.5-4.3zm0.8 7.3v-5.9h3.2c1.8 0 2.9 1.2 2.9 2.9 0 1.8-1.2 3-3 3zm16.9-4.4c0.5 0 0.7-0.3 0.5-0.7-0.5-1.4-1.9-2.4-3.6-2.4-2.4 0-4 1.6-4 3.7 0 2.2 1.4 3.1 4 4 2.2 0.6 3 1.4 3 2.6 0 1.7-1.3 2.7-3 2.7-1.4 0-2.5-0.8-2.9-1.8-0.1-0.4-0.3-0.6-0.7-0.6h-0.2c-0.5 0-0.7 0.3-0.6 0.7 0.5 1.8 2.3 3.1 4.3 3.1 2.6 0 4.6-1.6 4.6-4.1 0-2.4-1.9-3.4-4.5-4.3-1.7-0.5-2.5-1-2.5-2.3 0-1.2 1-2.3 2.5-2.3 0.8 0 1.6 0.5 2.1 1.2 0.1 0.3 0.3 0.5 0.7 0.5z"/>
	<path id="V V" class="s3" aria-label="V V"  d="m52.8 11.4l2-0.9q0.6 0.6 3.5 0.6v0.3l0.3-0.3h3.7l1.2-0.3 0.8 0.6 0.4-0.3h0.3q1.1 0.4 1 0.9l-0.3 1.8q-0.1 0.8-3.6 1.5l0.2-0.9-0.8 0.6h0.3q-5.8 11.8-6.9 11.8l0.1 0.9q-0.3 1.8-1.5 1.8v1.6q-2.2 4.5-3.9 4.5l-0.9-3.3 0.1-0.3 1.3-0.6h0.3l0.2 0.3h0.3l0.1-0.3-0.2-0.3 0.3-0.3 0.3-1.9-0.3 0.3q-1.5-0.3-1.4-0.9 5.9-10.7 6.3-13-3.8-0.4-3.3-3zm-19.6-0.6h0.9l2.1 0.3 2.7-0.3h1.2l2.7 0.3 3.1-0.3h1.8l0.8 0.6q-0.9 3.6-3.1 3.6-0.6 3.3 3.4 24.5-2.3 6.4-4.1 6.4l-0.3-0.3 0.1-0.3-5.6 0.6q-1.9-1-1.8-1.5l0.3-0.3h0.3l0.3 0.3q0.3-1 1.8-1.7 0.9 0 2.3-2.5l-1.9-4.5-0.4 0.3h-0.3l-0.8-0.6q0.9 0.5-0.4 2.3l-1.3 0.6h-0.4q-0.6-3.3-0.3-4.8l0.4-0.3h-0.6l0.1-0.9h0.6l0.3 0.3h0.3l0.1-0.6q-0.9 0-0.8-0.6l-0.4 0.3h-0.6l-1.5-16.4q-2.7-0.4-2.5-1.2v-0.3l0.3 0.3h0.3l0.8-2.7-0.3-0.3zm7.1 17.8l-0.7-1.2-0.4 0.3-0.1 0.6zm0.3 0.3h-0.3l-1.3 2.2h0.6l0.1-0.6h0.3l0.5 0.6 0.9-0.3 0.1-0.3-1.2-0.3 0.5-1zm-2.5 0.7l-0.9-0.3-0.2 1.2 1.1 0.6 1.1-0.9 0.1-0.6h-0.6v-0.3l-0.3 0.3zm10.2 1.8l0.8-0.6h0.3l-0.1 0.3-0.5 0.9zm3.2-20l2-0.9q0.6 0.6 3.5 0.6v0.3l0.3-0.3h3.7l1.2-0.3 0.8 0.6 0.4-0.3h0.3q1.1 0.4 1 0.9l-0.3 1.8q-0.1 0.8-3.6 1.5l0.2-0.9-0.8 0.6h0.4q-5.9 11.8-7 11.8l0.1 0.9q-0.3 1.9-1.5 1.9v1.5q-2.2 4.5-3.9 4.5l-0.9-3.3 0.1-0.3 1.3-0.6h0.3l0.2 0.3h0.3l0.1-0.3-0.2-0.3 0.3-0.3 0.3-1.8-0.3 0.3q-1.5-0.4-1.4-1 5.9-10.7 6.3-13-3.8-0.3-3.3-3zm-19.6-0.6h0.9l2.1 0.3 2.7-0.3h1.3l2.6 0.3 3.1-0.3h1.8l0.8 0.6q-0.9 3.6-3.1 3.6-0.6 3.3 3.4 24.6-2.3 6.3-4.1 6.3l-0.3-0.3 0.1-0.3-5.6 0.6q-1.9-1-1.8-1.5l0.3-0.3h0.3l0.3 0.3q0.3-1 1.8-1.7 0.9 0 2.3-2.4l-1.9-4.6-0.3 0.3h-0.4l-0.8-0.6q0.9 0.5-0.4 2.3l-1.3 0.6h-0.3q-0.7-3.3-0.4-4.8l0.4-0.3h-0.6l0.1-0.9h0.6l0.3 0.3h0.3l0.1-0.6q-0.9 0-0.8-0.6l-0.3 0.3h-0.7l-1.5-16.4q-2.7-0.4-2.5-1.2v-0.3l0.3 0.3h0.3l0.8-2.7-0.3-0.3zm7.1 17.9l-0.7-1.2-0.4 0.3-0.1 0.6zm0.3 0.3h-0.3l-1.3 2.1h0.6l0.1-0.6h0.3l0.5 0.6 0.9-0.3 0.1-0.3-1.2-0.3 0.5-0.9zm-2.5 0.6l-0.9-0.3-0.2 1.2 1.1 0.6 1.1-0.9 0.1-0.6h-0.6v-0.3l-0.3 0.3zm10.3 1.8l0.7-0.6h0.3l-0.1 0.3-0.5 0.9zm-17.6-0.2h18.5l-0.5 2.5h-18.5zm32.4 0h9.3l-0.5 2.6h-9.2zm38.7-19.7l2-1q0.6 0.7 3.5 0.7v0.3l0.3-0.3h3.7l1.2-0.3 0.8 0.6 0.4-0.3h0.3q1.1 0.4 1 0.9l-0.3 1.8q-0.1 0.7-3.6 1.5l0.2-0.9-0.8 0.6h0.3q-5.8 11.8-6.9 11.8l0.1 0.9q-0.3 1.8-1.5 1.8v1.5q-2.2 4.6-3.9 4.6l-0.9-3.4 0.1-0.3 1.3-0.6h0.3l0.2 0.3h0.3l0.1-0.3-0.2-0.3 0.3-0.3 0.3-1.8-0.3 0.3q-1.5-0.4-1.4-0.9 5.9-10.7 6.3-13-3.8-0.4-3.3-3zm-19.6-0.6h0.9l2.1 0.3 2.7-0.3h1.2l2.7 0.3 3.1-0.3h1.8l0.8 0.6q-0.9 3.6-3.1 3.6-0.6 3.3 3.4 24.5-2.3 6.4-4.1 6.4l-0.3-0.3 0.1-0.3-5.6 0.6q-1.9-1.1-1.8-1.5l0.3-0.3h0.3l0.3 0.3q0.3-1.1 1.8-1.7 0.9 0 2.3-2.5l-1.9-4.5-0.4 0.3h-0.3l-0.8-0.6q0.9 0.5-0.4 2.3l-1.3 0.6h-0.4q-0.6-3.3-0.3-4.8l0.4-0.3h-0.6l0.1-0.9h0.6l0.3 0.3h0.3l0.1-0.6q-0.9 0-0.8-0.7l-0.4 0.4h-0.6l-1.5-16.4q-2.7-0.4-2.5-1.2v-0.3l0.3 0.3h0.3l0.8-2.7-0.3-0.3zm7.1 17.8l-0.7-1.2-0.4 0.3-0.1 0.6zm0.3 0.3h-0.3l-1.3 2.1h0.6l0.1-0.6h0.3l0.5 0.6 0.9-0.3 0.1-0.3-1.2-0.3 0.5-0.9zm-2.5 0.6l-0.9-0.3-0.2 1.2 1.1 0.6 1.1-0.9 0.1-0.6h-0.6v-0.3l-0.3 0.3zm10.2 1.9l0.8-0.7h0.3l-0.1 0.3-0.5 1zm3.2-20l2-0.9q0.6 0.6 3.5 0.6v0.3l0.3-0.3h3.7l1.2-0.3 0.8 0.6 0.4-0.3h0.3q1.1 0.4 1 0.9l-0.3 1.8q-0.1 0.8-3.6 1.5l0.2-0.9-0.7 0.6h0.3q-5.9 11.8-7 11.8l0.1 0.9q-0.3 1.8-1.5 1.8v1.6q-2.2 4.5-3.9 4.5l-0.9-3.3 0.1-0.3 1.3-0.6h0.3l0.2 0.3h0.4v-0.3l-0.2-0.3 0.3-0.3 0.3-1.9-0.3 0.3q-1.5-0.3-1.4-0.9 5.9-10.7 6.3-13-3.8-0.4-3.3-3zm-19.6-0.6h0.9l2.1 0.3 2.7-0.3h1.3l2.6 0.3 3.1-0.3h1.8l0.8 0.6q-0.9 3.6-3.1 3.6-0.6 3.3 3.4 24.5-2.3 6.4-4.1 6.4l-0.3-0.3 0.1-0.3-5.6 0.6q-1.9-1-1.8-1.5l0.3-0.3h0.3l0.3 0.3q0.3-1 1.9-1.7 0.8 0 2.2-2.5l-1.9-4.5-0.3 0.3h-0.4l-0.7-0.6q0.8 0.5-0.5 2.3l-1.3 0.6h-0.3q-0.7-3.3-0.4-4.8l0.4-0.3h-0.6l0.1-0.9h0.6l0.3 0.3h0.3l0.1-0.6q-0.9 0-0.8-0.6l-0.3 0.3h-0.7l-1.5-16.4q-2.7-0.4-2.5-1.2v-0.3l0.3 0.3h0.3l0.8-2.7-0.3-0.3zm7.1 17.8l-0.7-1.2-0.4 0.3-0.1 0.6zm0.3 0.3h-0.3l-1.3 2.2h0.6l0.1-0.6h0.3l0.5 0.6 0.9-0.3 0.1-0.3-1.2-0.3 0.5-1zm-2.5 0.7l-0.9-0.4-0.2 1.3 1.1 0.6 1.1-0.9 0.1-0.6h-0.6v-0.4l-0.3 0.4zm10.3 1.8l0.7-0.6h0.3l-0.1 0.3-0.5 0.9zm-17.6-0.3h17.1l-0.5 2.6h-17.1z"/>
</svg>